<svg xmlns="http://www.w3.org/2000/svg" width="52" height="52" viewBox="0 0 52 52">
    <g transform="translate(-1300 -150)">
        <rect width="52" height="52" fill="#00bdec" rx="26" transform="translate(1300 150)"/>
        <g>
            <path fill="#fff" fill-rule="evenodd" d="M3.012 5.978a1.183 1.183 0 0 1 1.222-1.14h19.544A1.183 1.183 0 0 1 25 5.978v12.905a2.366 2.366 0 0 1-2.444 2.279H5.444A2.366 2.366 0 0 1 3 18.883V6.347a1.073 1.073 0 0 1 .012-.16zm2.432 2.534v10.371h17.112V8.512l-5.963 5.56a3.857 3.857 0 0 1-5.185 0zM7.366 7.08h13.268l-5.77 5.38a1.286 1.286 0 0 1-1.728 0z" transform="translate(1315.45 168.281) translate(-3 -4.838)"/>
        </g>
    </g>
</svg>
